<svg width="280" height="46" viewBox="0 0 317 46" fill="none" xmlns="http://www.w3.org/2000/svg">
<path d="M28.3631 1.34428C27.6177 1.49734 27.0587 1.68368 26.686 1.90329C26.3134 2.12623 26.127 2.58874 26.127 3.28751V21.0826C26.127 21.7847 26.3134 22.2472 26.686 22.4668C27.0587 22.6898 27.6177 22.8628 28.3631 22.9859V23.7712H20.497V22.9859C21.2423 22.8628 21.8014 22.6898 22.174 22.4668C22.5467 22.2472 22.733 21.7847 22.733 21.0826V3.35405L13.9619 21.3888H12.8439L3.62025 3.43391V21.0826C3.62025 21.7847 3.80659 22.2472 4.17926 22.4668C4.55193 22.6898 5.10096 22.8628 5.82967 22.9859V23.7712H0V22.9859C0.745345 22.8628 1.30435 22.6898 1.67703 22.4668C2.0497 22.2472 2.23604 21.7847 2.23604 21.0826V3.28751C2.23604 2.58874 2.0497 2.12623 1.67703 1.90329C1.30435 1.68368 0.745345 1.49734 0 1.34428V0.598938H5.78974L14.481 17.5822L22.733 0.598938H28.3631V1.34428Z" fill="#734E38"/>
<path d="M51.8366 19.3258C52.2092 20.1976 52.5353 20.8897 52.8215 21.4021C53.1043 21.9079 53.4371 22.2772 53.8197 22.5068C54.209 22.7297 54.7148 22.8894 55.337 22.9859V23.7712H46.9386V22.9859C48.1098 22.793 48.7554 22.5068 48.8818 22.1341C49.0049 21.7614 48.9151 21.2124 48.6156 20.4837L47.4976 17.875C47.248 17.4225 46.9552 17.1164 46.6192 16.9566C46.2897 16.7969 45.8771 16.7171 45.3813 16.7171H38.1409C37.5885 16.7171 37.1326 16.8102 36.7699 16.9966C36.4139 17.1829 36.1078 17.5656 35.8516 18.1412L36.0778 17.6088L34.9199 20.2974C34.6005 21.1226 34.647 21.7481 35.0663 22.174C35.4922 22.5933 36.2409 22.8628 37.3156 22.9859V23.7712H30.2216V22.9859C31.09 22.8096 31.7588 22.5301 32.2313 22.1474C32.7105 21.7681 33.1497 21.1359 33.549 20.2574L40.7496 3.43394C41.0424 2.73518 41.2354 2.17617 41.3352 1.75691C41.4417 1.331 41.4949 0.945018 41.4949 0.598965L43.6245 0.3727L51.8366 19.3258ZM45.5278 15.5591C45.774 15.5591 45.9603 15.4793 46.0868 15.3195C46.2099 15.1598 46.2099 14.9169 46.0868 14.5875L46.7123 16.0516L42.0938 5.25737C41.9408 4.93794 41.8077 4.77822 41.6946 4.77822C41.5881 4.77822 41.4716 4.95125 41.3485 5.2973L37.2358 14.9202C37.1626 15.3462 37.3889 15.5591 37.9146 15.5591H45.5278ZM37.3156 14.6274C37.3156 14.6274 37.3156 14.6374 37.3156 14.654C37.3156 14.664 37.3023 14.6674 37.2757 14.6674L37.3156 14.6274Z" fill="#734E38"/>
<path d="M57.1963 23.7712V22.9859C57.9416 22.8628 58.5006 22.6898 58.8733 22.4668C59.246 22.2472 59.4323 21.7847 59.4323 21.0826V3.28751C59.4323 2.58874 59.246 2.12623 58.8733 1.90329C58.5006 1.68368 57.9416 1.49734 57.1963 1.34428V0.598938H67.3516C70.2598 0.598938 72.4559 1.14464 73.9399 2.23604C75.4206 3.32743 76.1626 4.87136 76.1626 6.86783C76.1626 8.38514 75.7234 9.60963 74.845 10.5413C73.9732 11.473 72.6688 12.1651 70.9319 12.6176C70.8055 12.6376 70.7456 12.6842 70.7456 12.764C70.7456 12.8372 70.8055 12.8971 70.9319 12.9504C72.1032 13.2698 72.9883 13.8621 73.5939 14.7206C74.2061 15.5824 74.6354 16.4841 74.8849 17.4224C75.5038 19.4389 76.0362 20.8697 76.4821 21.7215C76.9346 22.5667 77.5336 22.9859 78.2789 22.9859V23.7712H77.2807C76.0562 23.7712 75.0713 23.5416 74.3259 23.0791C73.5806 22.6199 72.975 21.9478 72.5158 21.0693C72.0533 20.1842 71.6373 19.1061 71.2647 17.8351C70.7656 16.1414 70.0734 14.9601 69.1883 14.2947C68.3099 13.6225 67.0987 13.2831 65.5548 13.2831C64.4634 13.2831 63.7347 13.4395 63.372 13.749C63.016 14.0617 62.8396 14.5675 62.8396 15.2663V21.0826C62.8396 21.7847 63.0459 22.2472 63.4652 22.4668C63.8911 22.6898 64.5632 22.8628 65.4882 22.9859V23.7712H57.1963ZM64.8893 12.0852H67.5779C69.4679 12.0852 70.7888 11.6028 71.5442 10.6345C72.3062 9.66953 72.6888 8.43505 72.6888 6.93437C72.6888 5.41706 72.3062 4.17593 71.5442 3.20765C70.7888 2.24269 69.4279 1.75689 67.4581 1.75689H64.2904C63.8645 1.75689 63.5117 1.86004 63.2389 2.06301C62.9727 2.25933 62.8396 2.67526 62.8396 3.31412V10.1154C62.8396 10.8075 62.986 11.31 63.2788 11.6194C63.5783 11.9322 64.1173 12.0852 64.8893 12.0852Z" fill="#734E38"/>
<path d="M80.142 23.7712V22.9859C80.8873 22.8628 81.4463 22.6898 81.819 22.4668C82.1917 22.2472 82.378 21.7847 82.378 21.0826V3.28751C82.378 2.58874 82.1917 2.12623 81.819 1.90329C81.4463 1.68368 80.8873 1.49734 80.142 1.34428V0.598938H88.0613V1.34428C87.3059 1.49734 86.7369 1.68368 86.3576 1.90329C85.975 2.12623 85.7853 2.58874 85.7853 3.28751V21.0826C85.7853 21.7847 85.975 22.2472 86.3576 22.4668C86.7369 22.6898 87.3059 22.8628 88.0613 22.9859V23.7712H80.142Z" fill="#734E38"/>
<path d="M90.2903 23.7712V22.9859C91.0357 22.8628 91.5947 22.6898 91.9673 22.4668C92.34 22.2472 92.5263 21.7847 92.5263 21.0826V3.28751C92.5263 2.58874 92.34 2.12623 91.9673 1.90329C91.5947 1.68368 91.0357 1.49734 90.2903 1.34428V0.598938H98.2096V1.34428C97.4543 1.49734 96.8853 1.68368 96.506 1.90329C96.1233 2.12623 95.9336 2.58874 95.9336 3.28751V21.0826C95.9336 21.6616 96.0934 22.1141 96.4128 22.4402C96.7322 22.7597 97.2779 22.9061 98.0499 22.8794L103.88 22.5733C105.051 22.5301 105.936 22.2872 106.542 21.8413C107.154 21.3888 107.633 20.863 107.979 20.2574L108.618 19.1394H109.47L108.684 21.4952C108.558 21.8679 108.461 22.2372 108.392 22.5999C108.318 22.956 108.292 23.3453 108.312 23.7712H90.2903Z" fill="#734E38"/>
<path d="M111.333 23.7712V22.9859C112.079 22.8628 112.638 22.6898 113.01 22.4668C113.383 22.2472 113.569 21.7847 113.569 21.0826V3.28751C113.569 2.58874 113.383 2.12623 113.01 1.90329C112.638 1.68368 112.079 1.49734 111.333 1.34428V0.598938H119.252V1.34428C118.497 1.49734 117.928 1.68368 117.549 1.90329C117.166 2.12623 116.976 2.58874 116.976 3.28751V21.0826C116.976 21.7847 117.166 22.2472 117.549 22.4668C117.928 22.6898 118.497 22.8628 119.252 22.9859V23.7712H111.333Z" fill="#734E38"/>
<path d="M129.401 24.1439C127.883 24.1439 126.569 23.9742 125.461 23.6381C124.35 23.302 123.348 22.8628 122.453 22.3204C122.107 21.452 121.881 20.5968 121.774 19.7517C121.674 18.8998 121.694 18.1944 121.828 17.6354C121.967 17.0764 122.227 16.7969 122.599 16.7969C122.749 16.7969 122.869 16.8235 122.959 16.8767C123.045 16.9233 123.112 17.0431 123.159 17.2361C123.777 19.0562 124.759 20.4704 126.1 21.4819C127.448 22.4868 128.995 22.9726 130.745 22.946C132.083 22.9294 133.174 22.5933 134.019 21.9345C134.871 21.269 135.297 20.2541 135.297 18.8865C135.297 17.7153 134.994 16.8169 134.392 16.1846C133.796 15.5458 133.011 15.04 132.036 14.6673C131.068 14.2947 130.04 13.9353 128.948 13.5892C127.554 13.1101 126.306 12.5577 125.208 11.9255C124.117 11.2867 123.252 10.5147 122.613 9.60963C121.981 8.70457 121.668 7.60652 121.668 6.30882C121.668 4.49204 122.393 2.98804 123.851 1.79681C125.305 0.598938 127.351 0 129.986 0C131.281 0 132.475 0.153062 133.567 0.452531C134.665 0.745345 135.676 1.16793 136.601 1.71696C136.947 2.58874 137.167 3.44722 137.267 4.29905C137.363 5.14421 137.347 5.84298 137.214 6.40198C137.08 6.96099 136.828 7.2405 136.455 7.2405C136.179 7.2405 135.979 7.09076 135.856 6.78797C135.234 4.95122 134.292 3.5537 133.034 2.5954C131.773 1.6371 130.399 1.15795 128.908 1.15795C127.887 1.15795 127.072 1.35427 126.459 1.74358C125.854 2.12623 125.415 2.62867 125.142 3.24758C124.865 3.86981 124.729 4.51866 124.729 5.1908C124.729 6.1857 124.969 7.0109 125.448 7.66641C125.934 8.32524 126.596 8.86429 127.431 9.2902C128.263 9.71611 129.191 10.1021 130.213 10.4481C131.081 10.7509 132 11.0837 132.968 11.4464C133.943 11.8024 134.851 12.2516 135.696 12.7907C136.548 13.323 137.24 13.9819 137.773 14.7605C138.305 15.5424 138.571 16.5174 138.571 17.6886C138.571 19.2326 138.122 20.4837 137.227 21.442C136.328 22.4003 135.184 23.0924 133.793 23.5183C132.399 23.9342 130.935 24.1439 129.401 24.1439Z" fill="#734E38"/>
<path d="M140.995 23.7712V22.9859C141.74 22.8628 142.299 22.6898 142.672 22.4668C143.044 22.2472 143.231 21.7847 143.231 21.0826V3.28751C143.231 2.58874 143.044 2.12623 142.672 1.90329C142.299 1.68368 141.74 1.49734 140.995 1.34428V0.598938H157.938C158.284 0.598938 158.47 0.745345 158.497 1.03816C158.55 1.51731 158.623 2.06966 158.723 2.68857C158.82 3.3108 158.993 4.11936 159.242 5.11094H158.537C158.091 3.99292 157.492 3.16106 156.74 2.60871C155.995 2.05968 154.986 1.7835 153.719 1.7835H148.941C148.195 1.7835 147.623 1.88998 147.224 2.10294C146.831 2.31589 146.638 2.74846 146.638 3.39398V9.76935C146.638 10.4182 146.831 10.8474 147.224 11.0604C147.623 11.2733 148.195 11.3798 148.941 11.3798H152.641C153.812 11.3798 154.574 11.1602 154.93 10.7143C155.293 10.2618 155.549 9.61629 155.702 8.77112H156.301V15.2263H155.702C155.549 14.4011 155.293 13.7556 154.93 13.2831C154.574 12.814 153.812 12.5777 152.641 12.5777H148.941C148.195 12.5777 147.623 12.6842 147.224 12.8971C146.831 13.1034 146.638 13.5293 146.638 14.1749V20.9362C146.638 21.5851 146.878 22.021 147.357 22.2406C147.842 22.4635 148.771 22.56 150.138 22.5334L154.437 22.5068C155.802 22.4802 156.753 22.2905 157.286 21.9345C157.818 21.5718 158.234 21.1359 158.537 20.6301L159.429 19.2592H160.174C159.908 19.8016 159.685 20.3639 159.508 20.9495C159.329 21.5352 159.179 22.3038 159.056 23.2521C159.009 23.5982 158.81 23.7712 158.457 23.7712H140.995Z" fill="#734E38"/>
<path d="M168.753 23.7712V22.9859C169.499 22.8628 170.058 22.6898 170.43 22.4668C170.803 22.2472 170.989 21.7847 170.989 21.0826V3.20765C170.989 2.56212 170.803 2.12623 170.43 1.90329C170.058 1.68368 169.499 1.49734 168.753 1.34428V0.598938H179.574C182.236 0.598938 184.306 1.05147 185.79 1.95653C187.27 2.86159 188.012 4.19922 188.012 5.96276C188.012 7.3137 187.553 8.45168 186.642 9.38337C185.737 10.315 184.366 10.9938 182.529 11.4198C184.692 11.7392 186.355 12.4113 187.52 13.4295C188.691 14.451 189.277 15.7953 189.277 17.4624C189.277 18.6869 188.951 19.7783 188.305 20.7366C187.666 21.6882 186.775 22.4336 185.63 22.9726C184.485 23.505 183.141 23.7712 181.597 23.7712C181.045 23.7712 180.246 23.7512 179.201 23.7046C178.153 23.6514 176.999 23.6048 175.741 23.5582C174.49 23.505 173.245 23.4917 172.014 23.5183C170.79 23.5383 169.702 23.6215 168.753 23.7712ZM176.699 10.7809H179.468C181.304 10.7809 182.612 10.365 183.394 9.52977C184.183 8.69792 184.579 7.55993 184.579 6.12248C184.579 4.70499 184.193 3.59363 183.421 2.79504C182.649 1.99646 181.351 1.59717 179.534 1.59717H176.699C175.954 1.59717 175.382 1.70365 174.982 1.9166C174.59 2.12956 174.397 2.56212 174.397 3.20765V9.18372C174.397 9.84921 174.59 10.2851 174.982 10.4881C175.382 10.6844 175.954 10.7809 176.699 10.7809ZM175.728 22.6532H180.399C182.263 22.6532 183.634 22.214 184.512 21.3355C185.397 20.4504 185.843 19.1993 185.843 17.5822C185.843 16.331 185.567 15.2862 185.018 14.4411C184.475 13.5992 183.544 12.957 182.223 12.5112C180.908 12.0586 179.108 11.8324 176.819 11.8324C176.02 11.8324 175.415 11.9388 175.009 12.1518C174.6 12.3581 174.397 12.784 174.397 13.4295V21.0161C174.397 21.4886 174.496 21.8779 174.703 22.1873C174.916 22.5001 175.255 22.6532 175.728 22.6532Z" fill="#734E38"/>
<path d="M191.699 23.7712V22.9859C192.444 22.8628 193.003 22.6898 193.376 22.4668C193.749 22.2472 193.935 21.7847 193.935 21.0826V3.28751C193.935 2.58874 193.749 2.12623 193.376 1.90329C193.003 1.68368 192.444 1.49734 191.699 1.34428V0.598938H201.854C204.762 0.598938 206.959 1.14464 208.443 2.23604C209.923 3.32743 210.665 4.87136 210.665 6.86783C210.665 8.38514 210.226 9.60963 209.348 10.5413C208.476 11.473 207.172 12.1651 205.435 12.6176C205.308 12.6376 205.248 12.6842 205.248 12.764C205.248 12.8372 205.308 12.8971 205.435 12.9504C206.606 13.2698 207.491 13.8621 208.097 14.7206C208.709 15.5824 209.138 16.4841 209.388 17.4224C210.007 19.4389 210.539 20.8697 210.985 21.7215C211.437 22.5667 212.036 22.9859 212.782 22.9859V23.7712H211.783C210.559 23.7712 209.574 23.5416 208.829 23.0791C208.083 22.6199 207.478 21.9478 207.018 21.0693C206.556 20.1842 206.14 19.1061 205.767 17.8351C205.268 16.1414 204.576 14.9601 203.691 14.2947C202.813 13.6225 201.601 13.2831 200.057 13.2831C198.966 13.2831 198.237 13.4395 197.875 13.749C197.519 14.0617 197.342 14.5675 197.342 15.2663V21.0826C197.342 21.7847 197.549 22.2472 197.968 22.4668C198.394 22.6898 199.066 22.8628 199.991 22.9859V23.7712H191.699ZM199.392 12.0852H202.081C203.971 12.0852 205.292 11.6028 206.047 10.6345C206.809 9.66953 207.192 8.43505 207.192 6.93437C207.192 5.41706 206.809 4.17593 206.047 3.20765C205.292 2.24269 203.931 1.75689 201.961 1.75689H198.793C198.367 1.75689 198.014 1.86004 197.742 2.06301C197.475 2.25933 197.342 2.67526 197.342 3.31412V10.1154C197.342 10.8075 197.489 11.31 197.782 11.6194C198.081 11.9322 198.62 12.0852 199.392 12.0852Z" fill="#734E38"/>
<path d="M225.812 24.1439C224.088 24.1439 222.537 23.7978 221.153 23.1057C219.776 22.4069 218.691 21.3355 217.892 19.8981C217.094 18.454 216.694 16.6072 216.694 14.3612V3.28751C216.694 2.58874 216.508 2.12623 216.135 1.90329C215.763 1.68368 215.204 1.49734 214.458 1.34428V0.598938H222.378V1.34428C221.622 1.49734 221.053 1.68368 220.674 1.90329C220.291 2.12623 220.102 2.58874 220.102 3.28751V13.6558C220.102 16.6638 220.677 18.8965 221.832 20.3506C222.983 21.808 224.56 22.5334 226.557 22.5334C227.718 22.5334 228.813 22.2772 229.844 21.7614C230.883 21.239 231.724 20.3439 232.373 19.0729C233.019 17.8051 233.345 16.0748 233.345 13.8821V3.28751C233.345 2.58874 233.132 2.12623 232.706 1.90329C232.287 1.68368 231.701 1.49734 230.949 1.34428V0.598938H237.005V1.34428C236.276 1.49734 235.707 1.68368 235.301 1.90329C234.892 2.12623 234.689 2.58874 234.689 3.28751V14.1483C234.689 17.3792 233.907 19.8548 232.347 21.5751C230.793 23.2887 228.613 24.1439 225.812 24.1439Z" fill="#734E38"/>
<path d="M246.965 24.1439C245.447 24.1439 244.133 23.9742 243.025 23.6381C241.914 23.302 240.912 22.8628 240.017 22.3204C239.671 21.452 239.445 20.5968 239.338 19.7517C239.238 18.8998 239.258 18.1944 239.391 17.6354C239.531 17.0764 239.791 16.7969 240.163 16.7969C240.313 16.7969 240.433 16.8235 240.523 16.8767C240.609 16.9233 240.676 17.0431 240.722 17.2361C241.341 19.0562 242.323 20.4704 243.664 21.4819C245.012 22.4868 246.559 22.9726 248.309 22.946C249.647 22.9294 250.738 22.5933 251.583 21.9345C252.435 21.269 252.861 20.2541 252.861 18.8865C252.861 17.7153 252.558 16.8169 251.956 16.1846C251.36 15.5458 250.575 15.04 249.6 14.6673C248.632 14.2947 247.604 13.9353 246.512 13.5892C245.118 13.1101 243.87 12.5577 242.772 11.9255C241.681 11.2867 240.816 10.5147 240.177 9.60963C239.545 8.70457 239.232 7.60652 239.232 6.30882C239.232 4.49204 239.957 2.98804 241.415 1.79681C242.869 0.598938 244.915 0 247.55 0C248.845 0 250.039 0.153062 251.131 0.452531C252.229 0.745345 253.24 1.16793 254.165 1.71696C254.511 2.58874 254.731 3.44722 254.831 4.29905C254.927 5.14421 254.911 5.84298 254.778 6.40198C254.644 6.96099 254.392 7.2405 254.019 7.2405C253.743 7.2405 253.543 7.09076 253.42 6.78797C252.798 4.95122 251.856 3.5537 250.598 2.5954C249.337 1.6371 247.963 1.15795 246.472 1.15795C245.451 1.15795 244.636 1.35427 244.023 1.74358C243.418 2.12623 242.978 2.62867 242.706 3.24758C242.429 3.86981 242.293 4.51866 242.293 5.1908C242.293 6.1857 242.533 7.0109 243.012 7.66641C243.498 8.32524 244.16 8.86429 244.995 9.2902C245.827 9.71611 246.755 10.1021 247.777 10.4481C248.645 10.7509 249.563 11.0837 250.532 11.4464C251.507 11.8024 252.415 12.2516 253.26 12.7907C254.112 13.323 254.804 13.9819 255.337 14.7605C255.869 15.5424 256.135 16.5174 256.135 17.6886C256.135 19.2326 255.686 20.4837 254.791 21.442C253.892 22.4003 252.748 23.0924 251.357 23.5183C249.963 23.9342 248.499 24.1439 246.965 24.1439Z" fill="#734E38"/>
<path d="M270.657 24.1439C269.113 24.1439 267.616 23.8777 266.172 23.3453C264.734 22.8062 263.443 22.021 262.299 20.9895C261.154 19.9613 260.242 18.7068 259.57 17.2228C258.895 15.7421 258.559 14.0684 258.559 12.205C258.559 10.2618 258.905 8.53154 259.597 7.01423C260.295 5.49692 261.24 4.22584 262.432 3.19434C263.63 2.15618 264.974 1.36758 266.465 0.825204C267.962 0.276177 269.506 0 271.096 0C272.886 0 274.43 0.312779 275.728 0.931682C277.022 1.55391 278.017 2.32588 278.71 3.24758C279.408 4.1726 279.761 5.07767 279.761 5.96276C279.761 6.61161 279.565 7.15731 279.175 7.59986C278.793 8.03576 278.264 8.25204 277.591 8.25204C277.039 8.25204 276.567 8.06237 276.167 7.67972C275.775 7.29041 275.582 6.70811 275.582 5.93614C275.582 5.29062 275.395 4.59852 275.023 3.85982C274.65 3.12446 274.054 2.4989 273.239 1.98315C272.431 1.46074 271.369 1.19788 270.058 1.19788C268.488 1.19788 267.103 1.56722 265.906 2.30258C264.714 3.03129 263.779 4.07278 263.097 5.43037C262.412 6.78797 262.072 8.41175 262.072 10.3017C262.072 12.6176 262.551 14.6407 263.51 16.371C264.468 18.0946 265.752 19.4322 267.37 20.3905C268.983 21.3488 270.784 21.828 272.773 21.828C274.164 21.828 275.389 21.5584 276.447 21.0161C277.512 20.4671 278.527 19.6552 279.495 18.5804L280.014 19.0329C279.764 19.4788 279.392 19.9912 278.896 20.5769C278.397 21.1625 277.758 21.7281 276.979 22.2672C276.197 22.7996 275.282 23.2488 274.237 23.6115C273.189 23.9642 271.995 24.1439 270.657 24.1439Z" fill="#734E38"/>
<path d="M305.982 1.34428C305.237 1.49734 304.678 1.68368 304.305 1.90329C303.932 2.12623 303.746 2.58874 303.746 3.28751V21.0826C303.746 21.7847 303.932 22.2472 304.305 22.4668C304.678 22.6898 305.237 22.8628 305.982 22.9859V23.7712H298.076V22.9859C298.821 22.8628 299.384 22.6898 299.766 22.4668C300.156 22.2472 300.352 21.7847 300.352 21.0826V14.1483C300.352 13.2964 299.916 12.8705 299.048 12.8705H289.385C288.513 12.8705 288.08 13.2964 288.08 14.1483V21.0826C288.08 21.7847 288.27 22.2472 288.653 22.4668C289.032 22.6898 289.601 22.8628 290.356 22.9859V23.7712H282.437V22.9859C283.182 22.8628 283.741 22.6898 284.114 22.4668C284.487 22.2472 284.673 21.7847 284.673 21.0826V3.28751C284.673 2.58874 284.487 2.12623 284.114 1.90329C283.741 1.68368 283.182 1.49734 282.437 1.34428V0.598938H290.356V1.34428C289.601 1.49734 289.032 1.68368 288.653 1.90329C288.27 2.12623 288.08 2.58874 288.08 3.28751V10.4082C288.08 11.26 288.523 11.686 289.411 11.686H299.008C299.903 11.686 300.352 11.26 300.352 10.4082V3.28751C300.352 2.58874 300.156 2.12623 299.766 1.90329C299.384 1.68368 298.821 1.49734 298.076 1.34428V0.598938H305.982V1.34428Z" fill="#734E38"/>
<path d="M308.218 23.7712V22.9859C308.964 22.8628 309.523 22.6898 309.895 22.4668C310.268 22.2472 310.454 21.7847 310.454 21.0826V3.28751C310.454 2.58874 310.268 2.12623 309.895 1.90329C309.523 1.68368 308.964 1.49734 308.218 1.34428V0.598938H316.138V1.34428C315.382 1.49734 314.813 1.68368 314.434 1.90329C314.051 2.12623 313.862 2.58874 313.862 3.28751V21.0826C313.862 21.7847 314.051 22.2472 314.434 22.4668C314.813 22.6898 315.382 22.8628 316.138 22.9859V23.7712H308.218Z" fill="#734E38"/>
<path d="M52.0316 45.8536V45.5474C52.3244 45.5042 52.5407 45.441 52.6837 45.3611C52.8235 45.2746 52.8967 45.0916 52.8967 44.8154V37.9476C52.8967 37.7013 52.8235 37.535 52.6837 37.4551C52.5407 37.3686 52.3244 37.2921 52.0316 37.2288V36.9493H55.3989C56.0178 36.9493 56.6134 37.0225 57.1824 37.1623C57.7581 37.3054 58.2772 37.545 58.7397 37.881C59.1989 38.2104 59.5649 38.653 59.8311 39.212C60.0973 39.771 60.2304 40.4731 60.2304 41.3149C60.2304 42.1135 60.1039 42.799 59.8577 43.3646C59.6081 43.9336 59.2654 44.3995 58.8328 44.7622C58.397 45.1282 57.9012 45.3977 57.3422 45.5741C56.7831 45.7438 56.1909 45.8269 55.572 45.8269C55.2858 45.8269 54.9497 45.8136 54.5604 45.787C54.1678 45.7604 53.8184 45.7471 53.509 45.7471C53.3027 45.7471 53.083 45.7571 52.8435 45.7737C52.6105 45.7937 52.341 45.8203 52.0316 45.8536ZM55.4655 45.4543C56.3073 45.4543 56.9761 45.2646 57.4753 44.8819C57.971 44.5026 58.3271 43.9968 58.54 43.3646C58.753 42.7357 58.8595 42.0536 58.8595 41.3149C58.8595 40.5796 58.753 39.9141 58.54 39.3185C58.3271 38.7162 57.9677 38.2371 57.4619 37.881C56.9562 37.5183 56.2707 37.3353 55.4122 37.3353H55.0928C54.8067 37.3353 54.587 37.3753 54.4273 37.4551C54.2743 37.535 54.2011 37.7013 54.2011 37.9476V44.8154C54.2011 44.9951 54.261 45.1282 54.3874 45.2147C54.5205 45.3045 54.6835 45.3678 54.8799 45.401C55.0728 45.4376 55.2692 45.4543 55.4655 45.4543Z" fill="#734E38"/>
<path d="M63.8029 45.8536V45.5474C64.0957 45.5042 64.312 45.441 64.4551 45.3611C64.5948 45.2746 64.668 45.0916 64.668 44.8154V37.9742C64.668 37.708 64.5948 37.535 64.4551 37.4551C64.312 37.3686 64.0957 37.2921 63.8029 37.2288V36.9493H70.3247C70.4578 36.9493 70.5276 37.0026 70.5376 37.1091C70.5543 37.2954 70.5809 37.5083 70.6175 37.7479C70.6607 37.9875 70.7273 38.3003 70.8171 38.6796H70.5509C70.3812 38.247 70.1516 37.9276 69.8588 37.7213C69.5727 37.5083 69.1867 37.4019 68.7009 37.4019H66.8641C66.578 37.4019 66.3584 37.4418 66.1986 37.5217C66.0456 37.6015 65.9724 37.7679 65.9724 38.0141V40.4764C65.9724 40.726 66.0456 40.889 66.1986 40.9689C66.3584 41.0487 66.578 41.0887 66.8641 41.0887H68.2883C68.7308 41.0887 69.0236 41.0055 69.1667 40.8358C69.3065 40.6594 69.4063 40.4099 69.4595 40.0904H69.6858V42.5661H69.4595C69.4063 42.2566 69.3065 42.0137 69.1667 41.834C69.0236 41.6477 68.7308 41.5545 68.2883 41.5545H66.8641C66.578 41.5545 66.3584 41.5944 66.1986 41.6743C66.0456 41.7542 65.9724 41.9205 65.9724 42.1668V44.7622C65.9724 45.0117 66.0655 45.1814 66.2519 45.2679C66.4382 45.3578 66.7909 45.3944 67.3167 45.3744L68.9671 45.3611C69.4995 45.3544 69.8655 45.2812 70.0718 45.1481C70.2747 45.0084 70.4345 44.8387 70.5509 44.6424L70.897 44.1233H71.1765C71.0767 44.3296 70.9935 44.5459 70.9236 44.7755C70.8504 44.9984 70.7938 45.2912 70.7506 45.6539C70.7306 45.787 70.6574 45.8536 70.5243 45.8536H63.8029Z" fill="#734E38"/>
<path d="M77.5181 46C76.9325 46 76.4267 45.9367 76.0008 45.8136C75.5749 45.6805 75.1889 45.5075 74.8429 45.2945C74.7098 44.9585 74.6233 44.6291 74.59 44.3096C74.5534 43.9835 74.5634 43.7107 74.6166 43.4977C74.6699 43.2781 74.7663 43.165 74.9094 43.165C74.9627 43.165 75.0059 43.1783 75.0425 43.2049C75.0758 43.2249 75.1024 43.2681 75.1224 43.338C75.362 44.0401 75.738 44.5858 76.2537 44.9751C76.7661 45.3578 77.3617 45.5441 78.0372 45.5341C78.5496 45.5275 78.9689 45.3977 79.2883 45.1481C79.6144 44.8919 79.7808 44.5026 79.7808 43.9769C79.7808 43.5243 79.6643 43.1783 79.4347 42.9387C79.2018 42.6925 78.9023 42.4962 78.5297 42.3531C78.157 42.2133 77.761 42.0736 77.3451 41.9405C76.8127 41.7542 76.3336 41.5412 75.9077 41.3016C75.4884 41.0554 75.1557 40.7559 74.9094 40.4099C74.6699 40.0638 74.5501 39.6379 74.5501 39.1321C74.5501 38.44 74.8296 37.8644 75.3886 37.4019C75.9476 36.9427 76.7329 36.7098 77.7444 36.7098C78.2402 36.7098 78.696 36.7697 79.1153 36.8828C79.5412 36.9992 79.9305 37.1623 80.2866 37.3752C80.4197 37.7146 80.5028 38.0474 80.5394 38.3735C80.5827 38.6929 80.5794 38.9591 80.5261 39.1721C80.4729 39.385 80.3731 39.4915 80.2333 39.4915C80.1268 39.4915 80.047 39.4383 79.9937 39.3318C79.7542 38.623 79.3948 38.0873 78.9157 37.7213C78.4365 37.3486 77.9074 37.1623 77.3318 37.1623C76.9392 37.1623 76.6264 37.2388 76.3868 37.3886C76.1539 37.5316 75.9875 37.7213 75.881 37.9609C75.7746 38.2005 75.7213 38.45 75.7213 38.7062C75.7213 39.0889 75.8145 39.4083 76.0008 39.6645C76.1872 39.9141 76.44 40.1237 76.7595 40.2901C77.0789 40.4498 77.4383 40.5962 77.8376 40.7293C78.1637 40.8458 78.5164 40.9755 78.889 41.1153C79.2617 41.2484 79.6111 41.4214 79.9405 41.6344C80.2666 41.8407 80.5328 42.0936 80.7391 42.393C80.9421 42.6958 81.0452 43.0685 81.0452 43.511C81.0452 44.1066 80.8722 44.5891 80.5261 44.9618C80.1801 45.3278 79.7409 45.594 79.2085 45.7604C78.6761 45.9201 78.1104 46 77.5181 46Z" fill="#734E38"/>
<path d="M84.5497 45.8536V45.5474C84.8425 45.5042 85.0588 45.441 85.2019 45.3611C85.3416 45.2746 85.4148 45.0916 85.4148 44.8154V37.9742C85.4148 37.708 85.3416 37.535 85.2019 37.4551C85.0588 37.3686 84.8425 37.2921 84.5497 37.2288V36.9493H87.5976V37.2288C87.3115 37.2921 87.0952 37.3686 86.9454 37.4551C86.7924 37.535 86.7192 37.708 86.7192 37.9742V44.8154C86.7192 45.0916 86.7924 45.2746 86.9454 45.3611C87.0952 45.441 87.3115 45.5042 87.5976 45.5474V45.8536H84.5497Z" fill="#734E38"/>
<path d="M95.6754 46C95.0798 46 94.5075 45.8968 93.9585 45.6938C93.4061 45.4809 92.9103 45.1814 92.4678 44.7888C92.0319 44.3895 91.6825 43.907 91.4163 43.338C91.1568 42.7723 91.0303 42.1268 91.0303 41.4081C91.0303 40.6628 91.1634 39.9973 91.4296 39.4116C91.7025 38.826 92.0685 38.3402 92.521 37.9476C92.9802 37.5483 93.4993 37.2422 94.0783 37.0292C94.6539 36.8162 95.2495 36.7098 95.8618 36.7098C96.5605 36.7098 97.1661 36.8296 97.6719 37.0691C98.1777 37.302 98.557 37.5882 98.8165 37.9343C99.0827 38.2803 99.2158 38.6131 99.2158 38.9325C99.2158 39.1721 99.1393 39.3784 98.9896 39.5447C98.8365 39.7045 98.6369 39.7843 98.3906 39.7843C98.1777 39.7843 97.9947 39.7244 97.8449 39.598C97.6919 39.4649 97.6187 39.2885 97.6187 39.0656C97.6187 38.7927 97.5455 38.5066 97.4057 38.2138C97.2626 37.9209 97.0264 37.678 96.7003 37.4817C96.3709 37.2788 95.9416 37.1756 95.4092 37.1756C94.8236 37.1756 94.2979 37.3187 93.8387 37.6015C93.3862 37.8777 93.0301 38.2803 92.7739 38.8127C92.5144 39.3384 92.3879 39.9673 92.3879 40.7027C92.3879 41.3615 92.4944 41.9771 92.7074 42.5527C92.927 43.1317 93.2298 43.6375 93.6124 44.07C94.0017 44.496 94.4509 44.8287 94.9567 45.0683C95.4691 45.3079 96.0215 45.4276 96.6071 45.4276C96.9332 45.4276 97.2127 45.3711 97.4456 45.2546C97.6752 45.1415 97.7917 44.9019 97.7917 44.5359V42.8322C97.7917 42.6193 97.7584 42.4596 97.6985 42.3531C97.6453 42.2466 97.5288 42.1734 97.3525 42.1268C97.1728 42.0836 96.9033 42.047 96.5406 42.0203V41.7808L99.9079 41.7675V42.0203C99.6417 42.047 99.4421 42.0869 99.309 42.1401C99.1825 42.1867 99.0994 42.2599 99.0561 42.3664C99.0195 42.4662 99.0029 42.6193 99.0029 42.8322V45.8536C98.7799 45.6872 98.557 45.594 98.3374 45.574C98.1144 45.5574 97.8749 45.5874 97.6187 45.6672C97.3691 45.7404 97.0863 45.8103 96.7668 45.8802C96.4541 45.96 96.0914 46 95.6754 46Z" fill="#734E38"/>
<path d="M109.373 36.9493H111.622V37.2288C111.329 37.2921 111.106 37.3686 110.957 37.4551C110.813 37.535 110.744 37.708 110.744 37.9742V45.8536H110.238L104.515 38.3469V44.8154C104.515 45.0916 104.581 45.2746 104.714 45.3611C104.854 45.441 105.064 45.5042 105.34 45.5474V45.8536H103.117V45.5474C103.41 45.5042 103.626 45.441 103.769 45.3611C103.909 45.2746 103.982 45.0916 103.982 44.8154V37.9742C103.982 37.708 103.909 37.535 103.769 37.4551C103.626 37.3686 103.41 37.2921 103.117 37.2288V36.9493H105.007L110.224 43.7905V37.9742C110.224 37.708 110.151 37.535 110.012 37.4551C109.868 37.3686 109.656 37.2921 109.373 37.2288V36.9493Z" fill="#734E38"/>
<path d="M115.046 45.8536V45.5474C115.339 45.5042 115.555 45.441 115.698 45.3611C115.838 45.2746 115.911 45.0916 115.911 44.8154V37.9742C115.911 37.708 115.838 37.535 115.698 37.4551C115.555 37.3686 115.339 37.2921 115.046 37.2288V36.9493H121.568C121.701 36.9493 121.771 37.0026 121.781 37.1091C121.798 37.2954 121.824 37.5083 121.861 37.7479C121.904 37.9875 121.971 38.3003 122.06 38.6796H121.794C121.624 38.247 121.395 37.9276 121.102 37.7213C120.816 37.5083 120.43 37.4019 119.944 37.4019H118.107C117.821 37.4019 117.602 37.4418 117.442 37.5217C117.289 37.6015 117.216 37.7679 117.216 38.0141V40.4764C117.216 40.726 117.289 40.889 117.442 40.9689C117.602 41.0487 117.821 41.0887 118.107 41.0887H119.532C119.974 41.0887 120.267 41.0055 120.41 40.8358C120.55 40.6594 120.65 40.4099 120.703 40.0904H120.929V42.5661H120.703C120.65 42.2566 120.55 42.0137 120.41 41.834C120.267 41.6477 119.974 41.5545 119.532 41.5545H118.107C117.821 41.5545 117.602 41.5944 117.442 41.6743C117.289 41.7542 117.216 41.9205 117.216 42.1668V44.7622C117.216 45.0117 117.309 45.1814 117.495 45.2679C117.681 45.3578 118.034 45.3944 118.56 45.3744L120.21 45.3611C120.743 45.3544 121.109 45.2812 121.315 45.1481C121.518 45.0084 121.678 44.8387 121.794 44.6424L122.14 44.1233H122.42C122.32 44.3296 122.237 44.5459 122.167 44.7755C122.094 44.9984 122.037 45.2912 121.994 45.6539C121.974 45.787 121.901 45.8536 121.768 45.8536H115.046Z" fill="#734E38"/>
<path d="M125.713 45.8536V45.5474C126.006 45.5042 126.223 45.441 126.366 45.3611C126.505 45.2746 126.579 45.0916 126.579 44.8154V37.9742C126.579 37.708 126.505 37.535 126.366 37.4551C126.223 37.3686 126.006 37.2921 125.713 37.2288V36.9493H129.627C130.745 36.9493 131.586 37.159 132.155 37.5749C132.721 37.9942 133.007 38.5864 133.007 39.3584C133.007 39.9374 132.837 40.4065 132.501 40.7692C132.172 41.1253 131.67 41.3915 130.997 41.5678C130.951 41.5778 130.931 41.5944 130.931 41.6211C130.931 41.6477 130.951 41.671 130.997 41.6876C131.45 41.814 131.789 42.0436 132.022 42.3797C132.262 42.7091 132.425 43.0552 132.515 43.4179C132.754 44.1898 132.957 44.7422 133.127 45.0683C133.303 45.3877 133.533 45.5474 133.819 45.5474V45.8536H133.433C132.961 45.8536 132.585 45.767 132.302 45.5874C132.016 45.411 131.786 45.1548 131.61 44.8154C131.43 44.4793 131.27 44.0667 131.131 43.5776C130.934 42.9221 130.668 42.4662 130.332 42.2067C129.993 41.9505 129.527 41.8207 128.934 41.8207C128.508 41.8207 128.222 41.8839 128.083 42.007C127.949 42.1235 127.883 42.3132 127.883 42.5794V44.8154C127.883 45.0916 127.963 45.2746 128.123 45.3611C128.289 45.441 128.552 45.5042 128.908 45.5474V45.8536H125.713ZM128.668 41.3682H129.706C130.432 41.3682 130.944 41.1818 131.237 40.8092C131.53 40.4365 131.676 39.964 131.676 39.385C131.676 38.7994 131.53 38.3202 131.237 37.9476C130.944 37.5749 130.418 37.3886 129.666 37.3886H128.442C128.282 37.3886 128.149 37.4285 128.043 37.5083C127.936 37.5816 127.883 37.7413 127.883 37.9875V40.5962C127.883 40.8724 127.939 41.072 128.056 41.1951C128.169 41.3116 128.375 41.3682 128.668 41.3682Z" fill="#734E38"/>
<path d="M139.702 45.8536V45.5474C139.995 45.5042 140.211 45.441 140.354 45.3611C140.494 45.2746 140.567 45.0916 140.567 44.8154V37.9476C140.567 37.7013 140.494 37.535 140.354 37.4551C140.211 37.3686 139.995 37.2921 139.702 37.2288V36.9493H143.069C143.688 36.9493 144.284 37.0225 144.853 37.1623C145.429 37.3054 145.948 37.545 146.41 37.881C146.869 38.2104 147.235 38.653 147.502 39.212C147.768 39.771 147.901 40.4731 147.901 41.3149C147.901 42.1135 147.774 42.799 147.528 43.3646C147.279 43.9336 146.936 44.3995 146.503 44.7622C146.067 45.1282 145.572 45.3977 145.013 45.5741C144.454 45.7438 143.861 45.8269 143.242 45.8269C142.956 45.8269 142.62 45.8136 142.231 45.787C141.838 45.7604 141.489 45.7471 141.179 45.7471C140.973 45.7471 140.754 45.7571 140.514 45.7737C140.281 45.7937 140.012 45.8203 139.702 45.8536ZM143.136 45.4543C143.978 45.4543 144.647 45.2646 145.146 44.8819C145.642 44.5026 145.998 43.9968 146.211 43.3646C146.424 42.7357 146.53 42.0536 146.53 41.3149C146.53 40.5796 146.424 39.9141 146.211 39.3185C145.998 38.7162 145.638 38.2371 145.132 37.881C144.627 37.5183 143.941 37.3353 143.083 37.3353H142.763C142.477 37.3353 142.258 37.3753 142.098 37.4551C141.945 37.535 141.872 37.7013 141.872 37.9476V44.8154C141.872 44.9951 141.931 45.1282 142.058 45.2147C142.191 45.3045 142.354 45.3678 142.55 45.401C142.743 45.4376 142.94 45.4543 143.136 45.4543Z" fill="#734E38"/>
<path d="M151.473 45.8536V45.5474C151.766 45.5042 151.983 45.441 152.126 45.3611C152.265 45.2746 152.339 45.0916 152.339 44.8154V37.9742C152.339 37.708 152.265 37.535 152.126 37.4551C151.983 37.3686 151.766 37.2921 151.473 37.2288V36.9493H157.995C158.128 36.9493 158.198 37.0026 158.208 37.1091C158.225 37.2954 158.251 37.5083 158.288 37.7479C158.331 37.9875 158.398 38.3003 158.488 38.6796H158.221C158.052 38.247 157.822 37.9276 157.529 37.7213C157.243 37.5083 156.857 37.4019 156.371 37.4019H154.535C154.248 37.4019 154.029 37.4418 153.869 37.5217C153.716 37.6015 153.643 37.7679 153.643 38.0141V40.4764C153.643 40.726 153.716 40.889 153.869 40.9689C154.029 41.0487 154.248 41.0887 154.535 41.0887H155.959C156.401 41.0887 156.694 41.0055 156.837 40.8358C156.977 40.6594 157.077 40.4099 157.13 40.0904H157.356V42.5661H157.13C157.077 42.2566 156.977 42.0137 156.837 41.834C156.694 41.6477 156.401 41.5545 155.959 41.5545H154.535C154.248 41.5545 154.029 41.5944 153.869 41.6743C153.716 41.7542 153.643 41.9205 153.643 42.1668V44.7622C153.643 45.0117 153.736 45.1814 153.922 45.2679C154.109 45.3578 154.461 45.3944 154.987 45.3744L156.638 45.3611C157.17 45.3544 157.536 45.2812 157.742 45.1481C157.945 45.0084 158.105 44.8387 158.221 44.6424L158.568 44.1233H158.847C158.747 44.3296 158.664 44.5459 158.594 44.7755C158.521 44.9984 158.464 45.2912 158.421 45.6539C158.401 45.787 158.328 45.8536 158.195 45.8536H151.473Z" fill="#734E38"/>
<path d="M164.734 45.8536V45.5474C165.027 45.5042 165.243 45.441 165.386 45.3611C165.526 45.2746 165.599 45.0916 165.599 44.8154V37.9742C165.599 37.708 165.526 37.535 165.386 37.4551C165.243 37.3686 165.027 37.2921 164.734 37.2288V36.9493H167.782V37.2288C167.496 37.2921 167.279 37.3686 167.13 37.4551C166.977 37.535 166.903 37.708 166.903 37.9742V44.8154C166.903 45.0916 166.977 45.2746 167.13 45.3611C167.279 45.441 167.496 45.5042 167.782 45.5474V45.8536H164.734Z" fill="#734E38"/>
<path d="M177.47 36.9493H179.719V37.2288C179.427 37.2921 179.204 37.3686 179.054 37.4551C178.911 37.535 178.841 37.708 178.841 37.9742V45.8536H178.335L172.612 38.3469V44.8154C172.612 45.0916 172.679 45.2746 172.812 45.3611C172.951 45.441 173.161 45.5042 173.437 45.5474V45.8536H171.215V45.5474C171.507 45.5042 171.724 45.441 171.867 45.3611C172.006 45.2746 172.08 45.0916 172.08 44.8154V37.9742C172.08 37.708 172.006 37.535 171.867 37.4551C171.724 37.3686 171.507 37.2921 171.215 37.2288V36.9493H173.104L178.322 43.7905V37.9742C178.322 37.708 178.249 37.535 178.109 37.4551C177.966 37.3686 177.753 37.2921 177.47 37.2288V36.9493Z" fill="#734E38"/>
<path d="M185.153 45.8536V45.5475C185.586 45.5042 185.889 45.441 186.058 45.3611C186.235 45.2746 186.325 45.0916 186.325 44.8154V38.094C186.325 37.9277 186.298 37.7946 186.245 37.6947C186.198 37.5982 186.092 37.5284 185.925 37.4818C185.766 37.4285 185.503 37.4019 185.14 37.4019C184.801 37.4019 184.531 37.4418 184.328 37.5217C184.122 37.6016 183.949 37.7446 183.809 37.9476C183.676 38.1539 183.543 38.4401 183.41 38.8128H183.077L183.303 36.8961L184.129 36.9494H189.812L190.624 36.8961L190.85 38.8128H190.517C190.391 38.4401 190.258 38.1539 190.118 37.9476C189.975 37.7446 189.802 37.6016 189.599 37.5217C189.393 37.4418 189.123 37.4019 188.787 37.4019C188.431 37.4019 188.168 37.4285 188.002 37.4818C187.832 37.5284 187.726 37.5982 187.682 37.6947C187.646 37.7946 187.629 37.9277 187.629 38.094V44.8154C187.629 45.0916 187.709 45.2746 187.869 45.3611C188.035 45.441 188.338 45.5042 188.774 45.5475V45.8536H185.153Z" fill="#734E38"/>
<path d="M194.212 45.8536V45.5474C194.505 45.5042 194.721 45.441 194.865 45.3611C195.004 45.2746 195.077 45.0916 195.077 44.8154V37.9742C195.077 37.708 195.004 37.535 194.865 37.4551C194.721 37.3686 194.505 37.2921 194.212 37.2288V36.9493H200.734C200.867 36.9493 200.937 37.0026 200.947 37.1091C200.964 37.2954 200.99 37.5083 201.027 37.7479C201.07 37.9875 201.137 38.3003 201.227 38.6796H200.96C200.791 38.247 200.561 37.9276 200.268 37.7213C199.982 37.5083 199.596 37.4019 199.11 37.4019H197.274C196.987 37.4019 196.768 37.4418 196.608 37.5217C196.455 37.6015 196.382 37.7679 196.382 38.0141V40.4764C196.382 40.726 196.455 40.889 196.608 40.9689C196.768 41.0487 196.987 41.0887 197.274 41.0887H198.698C199.14 41.0887 199.433 41.0055 199.576 40.8358C199.716 40.6594 199.816 40.4099 199.869 40.0904H200.095V42.5661H199.869C199.816 42.2566 199.716 42.0137 199.576 41.834C199.433 41.6477 199.14 41.5545 198.698 41.5545H197.274C196.987 41.5545 196.768 41.5944 196.608 41.6743C196.455 41.7542 196.382 41.9205 196.382 42.1668V44.7622C196.382 45.0117 196.475 45.1814 196.661 45.2679C196.848 45.3578 197.2 45.3944 197.726 45.3744L199.377 45.3611C199.909 45.3544 200.275 45.2812 200.481 45.1481C200.684 45.0084 200.844 44.8387 200.96 44.6424L201.306 44.1233H201.586C201.486 44.3296 201.403 44.5459 201.333 44.7755C201.26 44.9984 201.203 45.2912 201.16 45.6539C201.14 45.787 201.067 45.8536 200.934 45.8536H194.212Z" fill="#734E38"/>
<path d="M204.88 45.8536V45.5474C205.172 45.5042 205.389 45.441 205.532 45.3611C205.672 45.2746 205.745 45.0916 205.745 44.8154V37.9742C205.745 37.708 205.672 37.535 205.532 37.4551C205.389 37.3686 205.172 37.2921 204.88 37.2288V36.9493H208.793C209.911 36.9493 210.753 37.159 211.322 37.5749C211.887 37.9942 212.173 38.5864 212.173 39.3584C212.173 39.9374 212.004 40.4065 211.668 40.7692C211.338 41.1253 210.836 41.3915 210.164 41.5678C210.117 41.5778 210.097 41.5944 210.097 41.6211C210.097 41.6477 210.117 41.671 210.164 41.6876C210.616 41.814 210.956 42.0436 211.188 42.3797C211.428 42.7091 211.591 43.0552 211.681 43.4179C211.921 44.1898 212.123 44.7422 212.293 45.0683C212.47 45.3877 212.699 45.5474 212.985 45.5474V45.8536H212.599C212.127 45.8536 211.751 45.767 211.468 45.5874C211.182 45.411 210.952 45.1548 210.776 44.8154C210.596 44.4793 210.436 44.0667 210.297 43.5776C210.1 42.9221 209.834 42.4662 209.498 42.2067C209.159 41.9505 208.693 41.8207 208.101 41.8207C207.675 41.8207 207.389 41.8839 207.249 42.007C207.116 42.1235 207.049 42.3132 207.049 42.5794V44.8154C207.049 45.0916 207.129 45.2746 207.289 45.3611C207.455 45.441 207.718 45.5042 208.074 45.5474V45.8536H204.88ZM207.834 41.3682H208.873C209.598 41.3682 210.11 41.1818 210.403 40.8092C210.696 40.4365 210.842 39.964 210.842 39.385C210.842 38.7994 210.696 38.3202 210.403 37.9476C210.11 37.5749 209.585 37.3886 208.833 37.3886H207.608C207.448 37.3886 207.315 37.4285 207.209 37.5083C207.102 37.5816 207.049 37.7413 207.049 37.9875V40.5962C207.049 40.8724 207.106 41.072 207.222 41.1951C207.335 41.3116 207.542 41.3682 207.834 41.3682Z" fill="#734E38"/>
<path d="M216.278 45.8536V45.5474C216.571 45.5042 216.787 45.441 216.93 45.3611C217.07 45.2746 217.143 45.0916 217.143 44.8154V37.9742C217.143 37.708 217.07 37.535 216.93 37.4551C216.787 37.3686 216.571 37.2921 216.278 37.2288V36.9493H219.326V37.2288C219.04 37.2921 218.824 37.3686 218.674 37.4551C218.521 37.535 218.448 37.708 218.448 37.9742V44.8154C218.448 45.0916 218.521 45.2746 218.674 45.3611C218.824 45.441 219.04 45.5042 219.326 45.5474V45.8536H216.278Z" fill="#734E38"/>
<path d="M227.284 46C226.422 46 225.65 45.8003 224.968 45.401C224.293 45.0017 223.757 44.4627 223.358 43.7772C222.959 43.0851 222.759 42.3065 222.759 41.4347C222.759 40.7692 222.879 40.1503 223.118 39.5714C223.358 38.9957 223.691 38.4933 224.117 38.0674C224.542 37.6414 225.035 37.3087 225.594 37.0691C226.16 36.8296 226.778 36.7098 227.444 36.7098C228.083 36.7098 228.675 36.8262 229.227 37.0558C229.776 37.2788 230.256 37.5982 230.665 38.0141C231.071 38.4234 231.387 38.9059 231.61 39.4649C231.839 40.0172 231.956 40.6162 231.956 41.2617C231.956 41.9272 231.836 42.5527 231.597 43.1384C231.357 43.7173 231.024 44.2165 230.598 44.6424C230.172 45.0683 229.673 45.401 229.108 45.6406C228.549 45.8802 227.94 46 227.284 46ZM227.617 45.5341C228.086 45.5341 228.542 45.4143 228.988 45.1748C229.43 44.9285 229.8 44.5292 230.093 43.9769C230.385 43.4279 230.532 42.6958 230.532 41.7808C230.532 40.8591 230.372 40.0572 230.053 39.3717C229.74 38.6796 229.327 38.1439 228.815 37.7612C228.299 37.3719 227.73 37.1756 227.111 37.1756C226.639 37.1756 226.183 37.2954 225.74 37.535C225.294 37.7745 224.928 38.1705 224.636 38.7195C224.343 39.2619 224.196 39.9906 224.196 40.9023C224.196 41.8274 224.349 42.6393 224.662 43.338C224.972 44.0301 225.388 44.5725 225.913 44.9618C226.436 45.3445 227.005 45.5341 227.617 45.5341Z" fill="#734E38"/>
<path d="M235.39 45.8536V45.5474C235.683 45.5042 235.9 45.441 236.043 45.3611C236.182 45.2746 236.256 45.0916 236.256 44.8154V37.9742C236.256 37.708 236.182 37.535 236.043 37.4551C235.9 37.3686 235.683 37.2921 235.39 37.2288V36.9493H239.304C240.422 36.9493 241.263 37.159 241.832 37.5749C242.398 37.9942 242.684 38.5864 242.684 39.3584C242.684 39.9374 242.514 40.4065 242.178 40.7692C241.849 41.1253 241.347 41.3915 240.674 41.5678C240.628 41.5778 240.608 41.5944 240.608 41.6211C240.608 41.6477 240.628 41.671 240.674 41.6876C241.127 41.814 241.466 42.0436 241.699 42.3797C241.939 42.7091 242.102 43.0552 242.192 43.4179C242.431 44.1898 242.634 44.7422 242.804 45.0683C242.98 45.3877 243.21 45.5474 243.496 45.5474V45.8536H243.11C242.638 45.8536 242.262 45.767 241.979 45.5874C241.693 45.411 241.463 45.1548 241.287 44.8154C241.107 44.4793 240.947 44.0667 240.808 43.5776C240.611 42.9221 240.345 42.4662 240.009 42.2067C239.67 41.9505 239.204 41.8207 238.611 41.8207C238.185 41.8207 237.899 41.8839 237.76 42.007C237.626 42.1235 237.56 42.3132 237.56 42.5794V44.8154C237.56 45.0916 237.64 45.2746 237.8 45.3611C237.966 45.441 238.229 45.5042 238.585 45.5474V45.8536H235.39ZM238.345 41.3682H239.383C240.109 41.3682 240.621 41.1818 240.914 40.8092C241.207 40.4365 241.353 39.964 241.353 39.385C241.353 38.7994 241.207 38.3202 240.914 37.9476C240.621 37.5749 240.095 37.3886 239.343 37.3886H238.119C237.959 37.3886 237.826 37.4285 237.72 37.5083C237.613 37.5816 237.56 37.7413 237.56 37.9875V40.5962C237.56 40.8724 237.616 41.072 237.733 41.1951C237.846 41.3116 238.052 41.3682 238.345 41.3682Z" fill="#734E38"/>
<path d="M246.789 45.8536V45.5474C247.082 45.5042 247.298 45.441 247.441 45.3611C247.581 45.2746 247.654 45.0916 247.654 44.8154V37.9742C247.654 37.708 247.581 37.535 247.441 37.4551C247.298 37.3686 247.082 37.2921 246.789 37.2288V36.9493H253.311C253.444 36.9493 253.514 37.0026 253.524 37.1091C253.54 37.2954 253.567 37.5083 253.604 37.7479C253.647 37.9875 253.713 38.3003 253.803 38.6796H253.537C253.367 38.247 253.138 37.9276 252.845 37.7213C252.559 37.5083 252.173 37.4019 251.687 37.4019H249.85C249.564 37.4019 249.344 37.4418 249.185 37.5217C249.032 37.6015 248.958 37.7679 248.958 38.0141V40.4764C248.958 40.726 249.032 40.889 249.185 40.9689C249.344 41.0487 249.564 41.0887 249.85 41.0887H251.274C251.717 41.0887 252.01 41.0055 252.153 40.8358C252.293 40.6594 252.392 40.4099 252.446 40.0904H252.672V42.5661H252.446C252.392 42.2566 252.293 42.0137 252.153 41.834C252.01 41.6477 251.717 41.5545 251.274 41.5545H249.85C249.564 41.5545 249.344 41.5944 249.185 41.6743C249.032 41.7542 248.958 41.9205 248.958 42.1668V44.7622C248.958 45.0117 249.052 45.1814 249.238 45.2679C249.424 45.3578 249.777 45.3944 250.303 45.3744L251.953 45.3611C252.486 45.3544 252.852 45.2812 253.058 45.1481C253.261 45.0084 253.421 44.8387 253.537 44.6424L253.883 44.1233H254.163C254.063 44.3296 253.98 44.5459 253.91 44.7755C253.837 44.9984 253.78 45.2912 253.737 45.6539C253.717 45.787 253.644 45.8536 253.51 45.8536H246.789Z" fill="#734E38"/>
<path d="M260.504 46C259.919 46 259.413 45.9367 258.987 45.8136C258.561 45.6805 258.175 45.5075 257.829 45.2945C257.696 44.9585 257.609 44.6291 257.576 44.3096C257.54 43.9835 257.55 43.7107 257.603 43.4977C257.656 43.2781 257.752 43.165 257.896 43.165C257.949 43.165 257.992 43.1783 258.029 43.2049C258.062 43.2249 258.089 43.2681 258.109 43.338C258.348 44.0401 258.724 44.5858 259.24 44.9751C259.752 45.3578 260.348 45.5441 261.023 45.5341C261.536 45.5275 261.955 45.3977 262.274 45.1481C262.601 44.8919 262.767 44.5026 262.767 43.9769C262.767 43.5243 262.65 43.1783 262.421 42.9387C262.188 42.6925 261.888 42.4962 261.516 42.3531C261.143 42.2133 260.747 42.0736 260.331 41.9405C259.799 41.7542 259.32 41.5412 258.894 41.3016C258.475 41.0554 258.142 40.7559 257.896 40.4099C257.656 40.0638 257.536 39.6379 257.536 39.1321C257.536 38.44 257.816 37.8644 258.375 37.4019C258.934 36.9427 259.719 36.7098 260.731 36.7098C261.226 36.7098 261.682 36.7697 262.101 36.8828C262.527 36.9992 262.917 37.1623 263.273 37.3752C263.406 37.7146 263.489 38.0474 263.526 38.3735C263.569 38.6929 263.566 38.9591 263.512 39.1721C263.459 39.385 263.359 39.4915 263.219 39.4915C263.113 39.4915 263.033 39.4383 262.98 39.3318C262.74 38.623 262.381 38.0873 261.902 37.7213C261.423 37.3486 260.894 37.1623 260.318 37.1623C259.925 37.1623 259.613 37.2388 259.373 37.3886C259.14 37.5316 258.974 37.7213 258.867 37.9609C258.761 38.2005 258.707 38.45 258.707 38.7062C258.707 39.0889 258.801 39.4083 258.987 39.6645C259.173 39.9141 259.426 40.1237 259.746 40.2901C260.065 40.4498 260.424 40.5962 260.824 40.7293C261.15 40.8458 261.502 40.9755 261.875 41.1153C262.248 41.2484 262.597 41.4214 262.927 41.6344C263.253 41.8407 263.519 42.0936 263.725 42.393C263.928 42.6958 264.031 43.0685 264.031 43.511C264.031 44.1066 263.858 44.5891 263.512 44.9618C263.166 45.3278 262.727 45.594 262.195 45.7604C261.662 45.9201 261.097 46 260.504 46Z" fill="#734E38"/>
</svg>
